<?xml version="1.0" standalone="no"?><!DOCTYPE svg PUBLIC "-//W3C//DTD SVG 1.1//EN" "http://www.w3.org/Graphics/SVG/1.1/DTD/svg11.dtd"><svg t="1709827269745" class="icon" viewBox="0 0 1024 1024" version="1.1" xmlns="http://www.w3.org/2000/svg" p-id="6733" width="512" height="512" xmlns:xlink="http://www.w3.org/1999/xlink"><path d="M128 0h768c70.7 0 128 57.3 128 128v768c0 70.7-57.3 128-128 128H128C57.3 1024 0 966.7 0 896V128C0 57.3 57.3 0 128 0z" fill="#FA9200" p-id="6734"></path><path d="M151.1 722.7c22.8 14.6 50.8 21.8 80.1 18.8 46.9-4.9 86.4-35.4 102.1-77.7 0.3-0.8 0.5-1.6 0.7-2.3 1.6-6 6.4-10.4 12-11 5.2-0.5 9.7 2.2 11 6 0.8 2.2 1.9 4.3 3.2 6.2 26.3 37 70.8 57.8 117 52.9 47.7-5 87.6-36.3 102.8-79.6 0.2-0.7 0.5-1.4 0.6-2.1 1.1-4.4 6-8.7 11.4-9.3 5.1-0.5 9.6 2.1 11 5.8 0.7 1.9 1.7 3.8 2.9 5.5 26.2 37.6 70.9 58.8 117.4 53.9 66.5-7 115.4-64.4 108.6-128.9-1.5-13.8-13.9-23.9-27.7-22.4s-23.9 13.9-22.4 27.7c3.8 36.2-24.4 69.3-63.7 73.5-27.2 2.9-53.4-9.1-69.3-30.5-10.6-23.3-35.6-37.4-61.9-34.6-26.2 2.8-47.9 21.6-54.7 45.7-8.9 24.4-32.2 42.4-60.2 45.3-26.9 2.8-52.9-8.8-69-29.8-10.4-23.7-35.6-38.2-62.3-35.4-26.4 2.8-47.9 21.8-55.1 46.9-9.3 23.8-32.2 41.3-59.8 44.2-37 3.9-69.7-19.4-76.6-52.3L147 525.3c0-1.2 0-2.2 0.1-3.2-1-12.6 4.5-25 15-32.9l367-281.1c18.4-14.1 43.4-16 63.7-4.8l129.2 71c2.6 1.4 5.1 3.1 7.5 4.9 76.8 58.1 125.5 103.1 147 136.8 4.5 8 6 15.5 5.3 22.9V688c0 31.9-24.1 58.6-55.8 61.9l-605.6 62.8c-1.7 0.2-3.4 0.3-5.1 0.3-34.4 0.7-62.8-26.6-63.6-60.9l-0.6-29.4zM556.5 257L209.1 510.4c-11.4 8.3-13.9 24.3-5.6 35.8 5.5 7.6 14.8 11.5 24.1 10.3l584.1-77.8c13.2-1.5 22.6-13.2 21.1-26-0.8-6.7-61.1-78.1-141.1-132.8C617.5 269 588.6 257 556.5 257z" fill="#FFFFFF" p-id="6735"></path></svg>